<?xml version="1.0" encoding="utf-8" ?>
<svg baseProfile="full" height="100%" version="1.1" width="100%" xmlns="http://www.w3.org/2000/svg" xmlns:ev="http://www.w3.org/2001/xml-events" xmlns:xlink="http://www.w3.org/1999/xlink"><defs><g id="marker"><circle cx="0.02cm" cy="0.02cm" fill="black" r="0.3cm" /><circle cx="0.02cm" cy="20.02cm" fill="black" r="0.3cm" /><circle cx="20.02cm" cy="0.02cm" fill="black" r="0.3cm" /><circle cx="20.02cm" cy="20.02cm" fill="black" r="0.3cm" /><rect fill="white" height="12.200000000000001cm" stroke="black" width="12.200000000000001cm" x="3.919999999999999cm" y="3.919999999999999cm" /><rect fill="none" height="7.799999999999999cm" stroke="black" width="7.799999999999999cm" x="6.119999999999999cm" y="6.119999999999999cm" /><circle cx="5.02cm" cy="5.02cm" r="0.9cm" /><circle cx="5.02cm" cy="15.02cm" r="0.9cm" /><circle cx="15.02cm" cy="5.02cm" r="0.9cm" /><circle cx="15.02cm" cy="15.02cm" r="0.9cm" /><circle cx="9.02cm" cy="5.02cm" r="0.9cm" /><circle cx="5.02cm" cy="9.02cm" r="0.9cm" /><circle cx="11.02cm" cy="5.02cm" r="0.9cm" /><circle cx="5.02cm" cy="11.02cm" r="0.9cm" /><circle cx="8.02cm" cy="15.02cm" r="0.9cm" /><circle cx="15.02cm" cy="8.02cm" r="0.9cm" /><circle cx="12.02cm" cy="15.02cm" r="0.9cm" /><circle cx="15.02cm" cy="12.02cm" r="0.9cm" /><circle cx="10.02cm" cy="10.02cm" fill="red" r="0.05cm" /><line stroke="rgb(10%,10%,16%)" x1="10.02cm" x2="12.02cm" y1="10.02cm" y2="10.02cm" /><line stroke="rgb(10%,10%,16%)" x1="10.02cm" x2="10.02cm" y1="10.02cm" y2="8.02cm" /><text fill="black" x="12.12cm" y="10.02cm">x</text><text fill="black" x="10.02cm" y="7.819999999999999cm">y</text></g></defs><rect fill="white" height="100%" stroke="none" width="100%" x="0" y="0" /><use x="0cm" xlink:href="#marker" y="0cm" /></svg>