<?xml version="1.0" encoding="utf-8" ?>
<svg baseProfile="full" height="29.7cm" version="1.1" width="21.0cm" xmlns="http://www.w3.org/2000/svg" xmlns:ev="http://www.w3.org/2001/xml-events" xmlns:xlink="http://www.w3.org/1999/xlink"><defs><g id="marker"><rect fill="white" height="20.64cm" width="20.64cm" x="0cm" y="0cm" /><circle cx="0.3cm" cy="0.3cm" fill="black" r="0.15cm" /><circle cx="0.3cm" cy="20.3cm" fill="black" r="0.15cm" /><circle cx="20.3cm" cy="0.3cm" fill="black" r="0.15cm" /><circle cx="20.3cm" cy="20.3cm" fill="black" r="0.15cm" /><rect fill="white" height="12.200000000000001cm" stroke="black" width="12.200000000000001cm" x="4.2cm" y="4.2cm" /><rect fill="none" height="7.799999999999999cm" stroke="black" width="7.799999999999999cm" x="6.4cm" y="6.4cm" /><circle cx="5.300000000000001cm" cy="5.300000000000001cm" r="0.9cm" /><circle cx="5.300000000000001cm" cy="15.3cm" r="0.9cm" /><circle cx="15.3cm" cy="5.300000000000001cm" r="0.9cm" /><circle cx="15.3cm" cy="15.3cm" r="0.9cm" /><circle cx="9.3cm" cy="5.300000000000001cm" r="0.9cm" /><circle cx="5.300000000000001cm" cy="9.3cm" r="0.9cm" /><circle cx="11.3cm" cy="5.300000000000001cm" r="0.9cm" /><circle cx="5.300000000000001cm" cy="11.3cm" r="0.9cm" /><circle cx="8.3cm" cy="15.3cm" r="0.9cm" /><circle cx="15.3cm" cy="8.3cm" r="0.9cm" /><circle cx="12.3cm" cy="15.3cm" r="0.9cm" /><circle cx="15.3cm" cy="12.3cm" r="0.9cm" /><circle cx="10.3cm" cy="10.3cm" fill="red" r="0.05cm" /><line stroke="rgb(10%,10%,16%)" x1="10.3cm" x2="12.3cm" y1="10.3cm" y2="10.3cm" /><line stroke="rgb(10%,10%,16%)" x1="10.3cm" x2="10.3cm" y1="10.3cm" y2="8.3cm" /><text fill="black" x="12.4cm" y="10.3cm">x</text><text fill="black" x="10.3cm" y="8.100000000000001cm">y</text></g></defs><rect fill="white" height="29.7cm" stroke="none" width="21.0cm" x="0" y="0" /><use x="0.17999999999999972cm" xlink:href="#marker" y="4.529999999999999cm" /></svg>